<svg id="num-1" xmlns="http://www.w3.org/2000/svg" viewBox="0 0 638.9 960.39">
    <title>svg-term-number-1</title>
    <path d="M634.63,341.44,473.21,452.67l-151.93-236L661.76-.39H960.18V960H634.63Z" transform="translate(-321.29 0.39)"
          style="fill:#ea00eb"/>
</svg>

<svg id="num-2" xmlns="http://www.w3.org/2000/svg" viewBox="0 0 795.41 960.29">
<title>svg-term-number-2</title>
<path d="M572.37,420.49a168.3,168.3,0,0,0,36.93-38.24q14.51-21.1,14.51-43.54,0-26.35-16.48-46.16t-52.11-19.79q-38.28,0-63.32,30.35t-27.7,81.79L164.77,350.59q9.22-91,47.49-157T307.9,84.14a389.48,389.48,0,0,1,128-64A521.44,521.44,0,0,1,581.61-.29,557.43,557.43,0,0,1,718.13,16.86Q786,34,838.83,70.28t85.74,94.31q33,58.06,33,139.82,0,58.06-15.17,102.23t-40.88,78.49a388.42,388.42,0,0,1-58,62q-32.34,27.68-67.93,52.75L638.32,697.51H960.18V960H203V716Z"
      transform="translate(-164.77 0.29)" style="fill:#fff"/>
</svg>

<svg id="num-3" xmlns="http://www.w3.org/2000/svg" viewBox="0 0 797.25 960.29">
<title>svg-term-number-3</title>
<path d="M804.91,458a240.83,240.83,0,0,1,63.55,32.08,227.42,227.42,0,0,1,49.42,47.52A209.14,209.14,0,0,1,949.33,596a193,193,0,0,1,10.91,63.55q0,79.6-33.38,136.72A286.18,286.18,0,0,1,839.57,890q-53.92,36.59-122,53.27A575.13,575.13,0,0,1,580.23,960a587.86,587.86,0,0,1-136.73-16.05q-67.39-16-123.25-50.7A377.8,377.8,0,0,1,222.7,806Q181,753.33,163,680.13l285-66.76q7.69,33.39,37.87,61.62t77.67,28.24a120.84,120.84,0,0,0,27-3.21,84.4,84.4,0,0,0,25.67-10.26,61.4,61.4,0,0,0,19.26-18.62q7.71-11.56,7.71-29.53,0-41.06-35.95-53.91t-96.29-12.85h-87.3V364.32h97.57q48.77,0,78.31-13.48t29.52-52q0-29.5-23.1-41.09a107.88,107.88,0,0,0-48.78-11.55q-32.11,0-59.06,19.9T464.7,324.53L181,264.18Q204.08,189.73,246.44,139t96.93-81.53A414.46,414.46,0,0,1,460.19,13.19,578.53,578.53,0,0,1,582.8-.29q60.33,0,124.53,14.78T824.17,62a276.47,276.47,0,0,1,86,83.44q33.36,50.71,33.38,122.6,0,77-40.44,122.6T804.91,452.9Z"
      transform="translate(-163 0.29)" style="fill:#fff"/>
</svg>

<svg id="num-4" xmlns="http://www.w3.org/2000/svg" viewBox="0 0 884.42 960.39">
<title>svg-term-number-4</title>
<path d="M830.75,960h-293V790.44H75.2V527.29L438.73-.39H829.4V538.14H959.62v252.3H830.75ZM536.39,295.34,376.34,538.14H541.82V295.34Z"
      transform="translate(-75.2 0.39)" style="fill:#fff"/>
</svg>

<svg id="num-5" xmlns="http://www.w3.org/2000/svg" viewBox="0 0 806.75 964.39">
<title>svg-term-number-tmp</title>
<path d="M959.89,618.24q0,98-35.77,163.6T832.06,887.15q-56.32,39.73-125.86,56.28A589.93,589.93,0,0,1,569.1,960a521,521,0,0,1-140.42-19.19Q359.8,921.59,302.84,884.5a371.32,371.32,0,0,1-96.71-90.75q-39.73-53.63-53-122.54L444.58,597q8,38.43,39.09,66.91t74.84,28.48q34.44,0,60.94-15.91t26.49-55.65q0-23.83-15.23-39.06t-39.09-24.52Q567.78,548,538,544.71a534.38,534.38,0,0,0-59-3.31q-21.2,0-51,2t-62.92,6q-33.13,4-66.9,9.29T234,569.21L267.07-4.39H904.25V257.9H533.33L528,325.47q18.53-2.64,37.09-4.64a316.16,316.16,0,0,1,33.12-2q72.83,0,138.43,17.22t115.25,53.66q49.67,36.42,78.82,93.38T959.89,618.24Z"
      transform="translate(-153.15 4.39)" style="fill:#ea00eb"/>
</svg>

<svg id="num-6" xmlns="http://www.w3.org/2000/svg" viewBox="0 0 817.91 960.4">
<title>svg-term-number-tmp</title>
<path d="M640.73,292.47A349.54,349.54,0,0,1,758.8,312.94,310.86,310.86,0,0,1,861,373q44.83,39.57,71.89,97.62t27,133.24q0,88.39-33,155T837.29,870.3q-56.74,44.86-130.6,67.27T551,960q-81.81,0-155.67-21.75t-130.6-65.3Q208,829.39,175,762.78t-33-156.33q0-88.35,35-165.56t81.13-141.82L471.86-.4H853.12L638.09,278l-11.87,14.51ZM551,511.48q-42.24,0-69.26,27.22t-27,67.1q0,41.18,27,69.06T551,702.76q44.83,0,71.89-27.9t27-69.06q0-39.85-27-67.1T551,511.48Z"
      transform="translate(-142.06 0.4)" style="fill:#fff"/>
</svg>

<svg id="num-7" xmlns="http://www.w3.org/2000/svg" viewBox="0 0 761.47 955.9">
<title>svg-term-number-tmp</title>
<path d="M245.71,960,608.89,271.43H198.45V4.1H959.93V232.29L618.34,960Z" transform="translate(-198.45 -4.1)"
      style="fill:#fff"/>
</svg>

<svg id="num-8" xmlns="http://www.w3.org/2000/svg" viewBox="0 0 754.89 960.3">
<title>svg-term-number-tmp</title>
<path d="M809,461.88q65.48,24.42,108.49,79t43,131.58q0,77-32.74,131.6a272.15,272.15,0,0,1-86,89.22Q788.42,927.93,721,943.95A593.44,593.44,0,0,1,583,960a626.59,626.59,0,0,1-138.65-15.39q-68.07-15.41-120.69-50.07a274.23,274.23,0,0,1-85.37-89.24q-32.74-54.54-32.74-131.58,0-74.45,41.55-128.39T356.4,463.17v-3.86q-56.74-21.8-96.72-71.24t-40-120q0-70.6,30.85-122a249.63,249.63,0,0,1,81.67-83.44Q383,30.55,448.61,15.12a582.38,582.38,0,0,1,266.21,0q65.61,15.38,116.39,47.5a255.83,255.83,0,0,1,82.32,83.44q31.51,51.36,31.51,122t-37.22,120Q870.57,437.49,809,458ZM582.37,578.7q-40.14,0-60.18,23.12t-20.06,52.64q0,29.53,20.06,52t60.18,22.46q40.11,0,60.18-22.46t20.06-52q0-29.53-20.06-52.64T582.37,578.7Zm0-351.76q-35,0-55,21.19t-20.06,45.57q0,25.71,20.06,47.52t55,21.83q35,0,55-21.83t20.08-47.52q0-24.36-20.08-45.57T582.37,226.94Z"
      transform="translate(-205.58 0.3)" style="fill:#ea00eb"/>
</svg>

<svg id="num-9" xmlns="http://www.w3.org/2000/svg" viewBox="0 0 817.83 960.3">
<title>svg-term-number-tmp</title>
<path d="M461.28,667.16a348.88,348.88,0,0,1-118.06-20.44,310.25,310.25,0,0,1-102.23-60q-44.87-39.6-71.89-97.63t-27-133.23q0-88.34,33-155t89.7-111.46q56.7-44.82,130.59-67.28T551-.3q81.77,0,155.65,21.77t130.59,65.3q56.7,43.52,89.7,110.15t33,156.31q0,88.38-34.95,165.54t-81.12,141.8L630.11,960H248.9L469.18,675.08l6.6-7.92ZM551,445.56q42.19,0,69.25-26.86t27-66.14q0-40.61-27-68.1T551,256.94q-44.87,0-71.89,27.52t-27,68.1q0,39.31,27,66.14T551,445.56Z"
      transform="translate(-142.05 0.3)" style="fill:#fff"/>
</svg>



