<svg xmlns="http://www.w3.org/2000/svg" viewBox="0 0 1115 213.06">
    <title>term-logo</title>
    <g id="bg">
        <line id="line-bottom" x1="1" y1="136.37" x2="1061" y2="136.37"
              style="fill:none;stroke:#ea00eb;stroke-miterlimit:10"/>
        <line id="line-middle" y1="65.87" x2="1060" y2="65.87" style="fill:none;stroke:#ea00eb;stroke-miterlimit:10"/>
        <line id="line-top" y1="28.87" x2="1060" y2="28.87" style="fill:none;stroke:#ea00eb;stroke-miterlimit:10"/>
    </g>
    <g id="typography">
        <g id="_9-y" data-name="9-y">
            <path id="_9-y-0" data-name="9-y-0"
                  d="M988.94,92.15h51.37V102h-5.62c-1.06,0-2.74.15-2.74,2.28a4.32,4.32,0,0,0,.61,1.82l11.86,21a16.88,16.88,0,0,1,2.13,5.17h.76a27.48,27.48,0,0,1,1.52-5.17l9.27-20.52a5.58,5.58,0,0,0,.76-2.43c0-2-1.82-2.13-2.58-2.13h-5.62V92.15h33.74V102H1078c-3,0-4.41.3-6.38,4.26l-35.26,75.24c-7.9,16-13.53,24.93-26.14,24.93-8.51,0-13.53-5.32-13.53-12.46a16.63,16.63,0,0,1,2.74-9.12c3.19,2.43,5.78,4.56,11.25,4.56,8.21,0,12.31-7.3,15.2-12.92l7.6-15.2-32.68-54.87C998.05,102,997.9,102,988.94,102Z"
                  transform="translate(-46.75 -26.13)" style="fill:#333"/>
            <path id="_9-y-2" data-name="9-y-2"
                  d="M1047.3,132.28a27.48,27.48,0,0,1,1.52-5.17l8.86-19.62h13.37l-11.64,24.83-.15.31Z"
                  transform="translate(-46.75 -26.13)" style="fill:#ea00eb"/>
            <path id="_9-y-1" data-name="9-y-1"
                  d="M1010.21,206.45c-8.51,0-13.53-5.32-13.53-12.46a16.63,16.63,0,0,1,2.74-9.12c3.19,2.43,5.78,4.56,11.25,4.56Z"
                  transform="translate(-46.75 -26.13)" style="fill:#ea00eb"/>
        </g>
        <g id="_8-h" data-name="8-h">
            <path id="_8-h-0" data-name="8-h-0"
                  d="M880.53,54.91c17.18-1.37,21.74-2,38.76-5.32v52a40.76,40.76,0,0,1,9-7.6,38.18,38.18,0,0,1,19.15-5.17c7.14,0,14.29,2,19.15,7,5.78,5.93,5.78,12.62,5.78,18.24V144c0,2.13,0,5.32,1.67,7,1.52,1.52,2.89,1.52,9.42,1.52v9.88H935.85v-9.88c7.75,0,10,0,10-7.14V118c0-3,0-6.38-2-9.12a9.25,9.25,0,0,0-8.21-4.1,15.79,15.79,0,0,0-9.88,4c-6.38,5.17-6.54,8.82-6.54,12.16v25.84c0,1.52,0,3.5,1.52,4.71,1.37,1.06,2.43,1.06,8.66,1.06v9.88h-48v-9.88c8.51,0,11.1,0,11.1-7.45V73.61c0-7.9-2.28-8.21-12-8.51Z"
                  transform="translate(-46.75 -26.13)" style="fill:#333"/>
            <path id="_8-h-1" data-name="8-h-1"
                  d="M892.53,91.5V73.61c0-7.9-2.28-8.21-12-8.51V54.91c17.18-1.37,21.74-2,38.76-5.32V91.5Z"
                  transform="translate(-46.75 -26.13)" style="fill:#ea00eb"/>
        </g>
        <g id="_7-p" data-name="7-p">
            <path id="_7-p-0" data-name="7-p-0"
                  d="M808.78,100.36c3.34-4.26,9.58-11.86,25.84-12,5.17,0,16,.46,25.23,10.79,6.84,7.9,8.82,16.87,8.82,27.36,0,11.55-3,23.25-11.7,30.85-8.66,7.45-20.21,8.36-26.75,8.36-14.29,0-18.24-5.62-20.37-8.66h-.3v31.16c0,1.82,0,4.26,1.37,5.62s2.58,1.37,9.27,1.37v10H772v-10c6.08,0,7.75,0,9.12-1.67,1.22-1.37,1.22-3.65,1.22-5.32V111.76c-.15-5.78-.61-8.36-7.3-8.36h-5V93.82a325.36,325.36,0,0,0,36.78-3.19,43.18,43.18,0,0,1,1.52,9.73Zm.46,30.4c.15,10,.15,13.22,3,16.72,2,2.43,6.38,5.32,12.62,5.32,13.38,0,14.29-14.44,14.29-23.41,0-5.32-.3-10.64-2-15.5C835.08,107,831,103.7,824.74,103.7a17.77,17.77,0,0,0-7.45,1.67c-8.06,4.26-8.06,12.46-8.06,16.57Z"
                  transform="translate(-46.75 -26.13)" style="fill:#333"/>
        </g>
        <g id="_6-a" data-name="6-a">
            <path id="_6-a-0" data-name="6-a-0"
                  d="M752.09,147.93c0,2,0,5.47,3.5,5.47,2.28,0,3.8-2,4.56-3.8a16.85,16.85,0,0,0,.61-5.47h10.64c-.61,4.71-1.52,12.46-8.66,17.18-4,2.58-9.27,3.8-14.74,3.8-14.89,0-19.61-7.45-21.28-10.18a21.66,21.66,0,0,1-7.45,6.38,34.75,34.75,0,0,1-16.57,4.1c-5.17,0-10.18-.91-14.44-3.65a19.66,19.66,0,0,1-9-17A24.08,24.08,0,0,1,682.93,132c4.86-6.84,13.83-9,25.84-11.4a119.11,119.11,0,0,0,16.42-4.26v-7c0-2.74-.15-10-10-10-2.13,0-5.17.46-7.14,2.28a7.52,7.52,0,0,0-2.13,4.56l-.46,3.19c-1.06,5.17-5.62,6.69-10.64,6.69-8.51,0-10.79-5-10.79-8.51C684,97.62,698.58,89,718.5,89c5.62,0,15.81.76,23.1,4.86,10.34,5.78,10.34,14.29,10.49,21.28Zm-26.9-21.28c-2.58,1.06-5,2.13-7.6,3-7.9,3.19-12,5.47-12,12.31,0,6.38,4.26,9.42,9.12,9.42a13.56,13.56,0,0,0,6.84-1.82c3.5-2.13,3.5-4.71,3.65-7.14Z"
                  transform="translate(-46.75 -26.13)" style="fill:#333"/>
            <path id="_6-a-1" data-name="6-a-1"
                  d="M707.95,101.57a7.52,7.52,0,0,0-2.13,4.56l-.46,3.19c-1.06,5.17-5.62,6.69-10.64,6.69-8.51,0-10.79-5-10.79-8.51,0-8,9.58-15.21,23.82-17.66Z"
                  transform="translate(-46.75 -26.13)" style="fill:#ea00eb"/>
        </g>
        <g id="_5-r" data-name="5-r">
            <path id="_5-r-0" data-name="5-r-0"
                  d="M598.12,94.28c22-1.22,28.42-2.74,36.17-4.71A50.44,50.44,0,0,1,636,100.81c5.47-5.17,12.46-11.7,21.73-11.7,9.42,0,13.22,6.84,13.22,13.07,0,7.75-5.47,12.92-12.31,12.92-5.17,0-7.6-2.89-9.73-5.47-1.06-1.37-1.82-2.13-3.34-2.13-4.56,0-7.75,5.47-9,7.75v29.18c.15,7.3,3.19,7.6,13.53,8.06v9.88H597.66v-9.88c11.25-.3,12.31-.46,12.31-9.27V114.49c-.15-8.82-2.13-10.33-11.86-10.18Z"
                  transform="translate(-46.75 -26.13)" style="fill:#333"/>
            <path id="_5-r-1" data-name="5-r-1"
                  d="M645.86,92.87a22.59,22.59,0,0,1,12-3.76c9.42,0,13.22,6.84,13.22,13.07,0,7.75-5.47,12.92-12.31,12.92-5.17,0-7.6-2.89-9.73-5.47-1.06-1.37-1.82-2.13-3.34-2.13Z"
                  transform="translate(-46.75 -26.13)" style="fill:#ea00eb"/>
        </g>
        <g id="_4-g" data-name="4-g">
            <path id="_4-g-0" data-name="4-g-0"
                  d="M577.14,89c5.93,0,10.49,4,10.49,9.73,0,4.26-2.58,7.6-7.6,7.6-4.56,0-6.08-2.89-7.14-5-.46-.46-.61-.91-1.37-.91-1.22,0-2.13,1.06-2.89,2.13,2,3.5,3.8,6.84,3.8,12.62a20.91,20.91,0,0,1-8.21,17.17c-10.18,8.36-23.1,8.36-30.4,8.36-5.47,0-10,.15-10,3.8,0,2.28,2,2.89,3.19,3.19,1.37.46,2.43.61,11.7,1.82,6.08.76,12,1.52,17.94,2.74,5.62,1.22,23,4.71,23,22.34,0,17.33-17.48,29.33-42.1,29.33-24.77,0-41.49-8.06-41.49-21.43,0-8.66,7.9-12.46,15.35-12.46,2.89,0,7.3.61,7.3,3.5,0,1.06-.76,2-1.22,2.89a12.81,12.81,0,0,0-1.06,5.32,10.11,10.11,0,0,0,5.17,9.27c4.71,2.89,12.31,3.19,16,3.19,14,0,22.8-5.32,22.8-12,0-5-4.41-6.08-6.23-6.54-4.56-1.06-26.9-4.56-31.92-5.62-7.45-1.37-20.22-4.41-20.22-16.72,0-11.86,10.18-14.14,15.5-15.35-6.38-2.74-17.63-7.75-17.63-22.34,0-14.74,14-26.9,36.33-26.9,15.81,0,23.25,5,27.66,7.9C566.5,93.67,570.45,89,577.14,89Zm-46.81,12.92c-4.26,4.1-4.26,11.1-4.26,13.53,0,3.19,0,15.81,10.34,15.81,9.73,0,10-12.16,10-16.42,0-2.58,0-15.5-9.73-15.5A8.71,8.71,0,0,0,530.32,101.88Z"
                  transform="translate(-46.75 -26.13)" style="fill:#333"/>
            <path id="_4-g-2" data-name="4-g-2"
                  d="M563.76,96.56c2.74-2.89,6.69-7.6,13.38-7.6,5.93,0,10.49,4,10.49,9.73,0,4.26-2.58,7.6-7.6,7.6-4.56,0-6.08-2.89-7.14-5-.46-.46-.61-.91-1.37-.91-1.22,0-2.13,1.06-2.89,2.13Z"
                  transform="translate(-46.75 -26.13)" style="fill:#ea00eb"/>
            <path id="_4-g-1" data-name="4-g-1"
                  d="M575.86,162.85a19.86,19.86,0,0,1,3.7,12.12c0,17.33-17.48,29.33-42.1,29.33-24.77,0-41.49-8.06-41.49-21.43,0-8.66,7.9-12.46,15.35-12.46,2.89,0,7.3.61,7.3,3.5,0,1.06-.76,2-1.22,2.89a12.81,12.81,0,0,0-1.06,5.32,10.11,10.11,0,0,0,5.17,9.27c4.71,2.89,12.31,3.19,16,3.19,14,0,22.8-5.32,22.8-12,0-5-4.41-6.08-6.23-6.54-4.56-1.06-26.9-4.56-31.92-5.62-5.2-1-13-2.73-17.23-7.91Z"
                  transform="translate(-46.75 -26.13)" style="fill:#ea00eb"/>
        </g>
        <g id="_3-o" data-name="3-o">
            <path id="_3-o-0" data-name="3-o-0"
                  d="M483.5,127.41c0,22.19-16.72,37.85-44.08,37.85a72.45,72.45,0,0,1-14.9-1.52c-6.69-1.52-12.92-3.8-19.15-9.42-5-4.41-11.7-11.86-11.7-27.36,0-25.69,21.13-38,45-38C462.83,89,483.5,101.42,483.5,127.41Zm-59.58.3c0,18.85,4.1,26.6,15,26.6,12.46,0,14.29-11.7,14.29-27.81,0-11.86-1.06-26.6-14.14-26.6C427.88,99.9,423.92,108,423.92,127.72Z"
                  transform="translate(-46.75 -26.13)" style="fill:#333"/>
            <path id="_3-o-1" data-name="3-o-1"
                  d="M423.92,127.72c0,18.85,4.1,26.6,15,26.6,12.46,0,14.29-11.7,14.29-27.81,0-11.86-1.06-26.6-14.14-26.6C427.88,99.9,423.92,108,423.92,127.72Z"
                  transform="translate(-46.75 -26.13)" style="fill:#ea00eb"/>
        </g>
        <g id="_2-p" data-name="2-p">
            <path id="_2-p-0" data-name="2-p-0"
                  d="M318.13,100.36c3.34-4.26,9.58-11.86,25.84-12,5.17,0,16,.46,25.23,10.79C376,107,378,116,378,126.5c0,11.55-3,23.25-11.7,30.85-8.66,7.45-20.22,8.36-26.75,8.36-14.29,0-18.24-5.62-20.37-8.66h-.3v31.16c0,1.82,0,4.26,1.37,5.62s2.58,1.37,9.27,1.37v10H281.35v-10c6.08,0,7.75,0,9.12-1.67,1.22-1.37,1.22-3.65,1.22-5.32V111.76c-.15-5.78-.61-8.36-7.3-8.36h-5V93.82a325.39,325.39,0,0,0,36.78-3.19,43.18,43.18,0,0,1,1.52,9.73Zm.46,30.4c.15,10,.15,13.22,3,16.72,2,2.43,6.38,5.32,12.62,5.32,13.38,0,14.29-14.44,14.29-23.41,0-5.32-.3-10.64-2-15.5-2.13-6.84-6.23-10.18-12.46-10.18a17.78,17.78,0,0,0-7.45,1.67c-8.06,4.26-8.06,12.46-8.06,16.57Z"
                  transform="translate(-46.75 -26.13)" style="fill:#333"/>
            <rect id="_2-p-1" data-name="2-p-1" x="234" y="168.37" width="49" height="11" style="fill:#ea00eb"/>
        </g>
        <g id="_1-y" data-name="1-y">
            <path id="_1-y-0" data-name="1-y-0"
                  d="M173.28,92.15h51.37V102H219c-1.06,0-2.74.15-2.74,2.28a4.32,4.32,0,0,0,.61,1.82l11.86,21a16.91,16.91,0,0,1,2.13,5.17h.76a27.49,27.49,0,0,1,1.52-5.17l9.27-20.52a5.59,5.59,0,0,0,.76-2.43c0-2-1.82-2.13-2.58-2.13H235V92.15h33.74V102h-6.38c-3,0-4.41.3-6.38,4.26L220.7,181.52c-7.9,16-13.53,24.93-26.14,24.93C186,206.45,181,201.13,181,194a16.63,16.63,0,0,1,2.74-9.12c3.19,2.43,5.78,4.56,11.25,4.56,8.21,0,12.31-7.3,15.2-12.92l7.6-15.2-32.68-54.87C182.4,102,182.25,102,173.28,102Z"
                  transform="translate(-46.75 -26.13)" style="fill:#333"/>
            <path id="_1-y-1" data-name="1-y-1" d="M234.28,102V92.15h34.47V102Z" transform="translate(-46.75 -26.13)"
                  style="fill:#ea00eb"/>
            <path id="_1-y-2" data-name="1-y-2" d="M173.28,102V92.15h51.37V102Z" transform="translate(-46.75 -26.13)"
                  style="fill:#ea00eb"/>
        </g>
        <g id="_0-t" data-name="0-t">
            <path id="_0-t-0" data-name="0-t-0"
                  d="M176.77,54.91l1.82,32.22H168c-.61-6.69-1.22-14.59-6.23-18.7-3.5-2.74-8.21-2.74-12.16-2.74H136.64v73.41c0,4,0,10.34,7.3,12,2,.46,3.19.46,9.73.46v10.79H90.13V151.58c7.45,0,8.51,0,10.64-.61,5.93-2,6.08-7.45,6.08-11.4V65.7H94.08c-5.17,0-10,0-14.14,5.47-3.19,4.41-3.65,10.64-4.1,16H65.51l1.37-32.22Z"
                  transform="translate(-46.75 -26.13)" style="fill:#333"/>
            <path id="_0-t-1" data-name="0-t-1" d="M106.85,142.57V68.7h29.79v73.41Z"
                  transform="translate(-46.75 -26.13)" style="fill:#ea00eb"/>
        </g>
    </g>
    <g id="term">
        <text transform="translate(238 205.96)"
              style="font-size:14px;fill:#ea00eb;font-family:AvenirNext-Medium, Avenir Next;letter-spacing:0.07498604910714286em">
            FOOT
        </text>
        <text transform="translate(452 205.96)"
              style="font-size:14px;fill:#ea00eb;font-family:AvenirNext-Medium, Avenir Next;letter-spacing:0.07498604910714286em">
            DESCENDER
        </text>
        <text transform="translate(594 50.96)"
              style="font-size:14px;fill:#ea00eb;font-family:AvenirNext-Medium, Avenir Next;letter-spacing:0.07498604910714286em">
            TERMINAL
        </text>
        <text transform="translate(807 11.96)"
              style="font-size:14px;fill:#ea00eb;font-family:AvenirNext-Medium, Avenir Next;letter-spacing:0.07498604910714286em">
            ASCENDER
        </text>
        <text transform="translate(942 206.96)"
              style="font-size:14px;fill:#ea00eb;font-family:AvenirNext-Medium, Avenir Next;letter-spacing:0.014997209821428572em">
            TAIL
        </text>
        <text transform="translate(518 50.96)"
              style="font-size:14px;fill:#ea00eb;font-family:AvenirNext-Medium, Avenir Next;letter-spacing:0.07498604910714286em">
            EAR
        </text>
        <text transform="translate(56 11.96)"
              style="font-size:14px;fill:#ea00eb;font-family:AvenirNext-Medium, Avenir Next;letter-spacing:0.05901227678571429em">
            STEM
        </text>
        <text transform="translate(160 51.96)"
              style="font-size:14px;fill:#ea00eb;font-family:AvenirNext-Medium, Avenir Next;letter-spacing:0.07498604910714286em">
            SERIF
        </text>
        <text transform="translate(368 160.96)"
              style="font-size:14px;fill:#ea00eb;font-family:AvenirNext-Medium, Avenir Next;letter-spacing:0.07498604910714286em">
            BOWL
        </text>
        <text transform="translate(1032 96.96)"
              style="font-size:14px;fill:#ea00eb;font-family:AvenirNext-Medium, Avenir Next;letter-spacing:0.05901227678571429em">
            STROKE
        </text>
    </g>
</svg>